<?xml version="1.0" encoding="UTF-8"?>
<svg width="30px" height="30px" viewBox="0 0 30 30" version="1.1" xmlns="http://www.w3.org/2000/svg" xmlns:xlink="http://www.w3.org/1999/xlink">
    <!-- Generator: Sketch 51.1 (57501) - http://www.bohemiancoding.com/sketch -->
    <title>noun_Family_1312578</title>
    <desc>Created with Sketch.</desc>
    <defs></defs>
    <g id="[Skin]-Web-Guardian/Custodian-Copy" stroke="none" stroke-width="1" fill="none" fill-rule="evenodd">
        <g id="Desktop-HD-LOHP" transform="translate(-20.000000, -5.000000)" fill="#FFFFFF" fill-rule="nonzero">
            <g id="noun_Family_1312578" transform="translate(35.000000, 20.000000) scale(1, -1) translate(-35.000000, -20.000000) translate(20.000000, 5.000000)">
                <path d="M21.769,28.3973333 L29.08,21.1493333 C30.9006667,19.3286667 29.2266667,14.5986667 27.2346667,11.1036667 L23.5233333,5.19466667 C23.5163333,5.18066667 23.5093333,5.17033333 23.506,5.15633333 C23.3943333,4.926 23.2723333,4.78666667 23.1466667,4.74466667 C22.948,4.67833333 22.641,4.84233333 22.3723333,4.98533333 C22.3026667,5.02366667 22.2363333,5.05866667 22.17,5.09333333 L21.8213333,5.26433333 C20.8933333,5.70366667 20.6633333,7.071 21.082,7.95 L23.304,12.6346667 C23.3876667,12.809 23.3143333,13.015 23.14,13.0986667 C23.091,13.1196667 23.039,13.1336667 22.99,13.1336667 C22.9866667,13.1336667 22.9796667,13.1303333 22.976,13.1303333 C21.6366667,14.3266667 21.0853333,16.123 21.3923333,18.3416667 C21.525,19.3253333 21.8526667,20.2323333 22.3376667,20.9613333 C22.4423333,21.1216667 22.4003333,21.338 22.24,21.4463333 C22.1806667,21.4846667 22.111,21.502 22.0446667,21.502 C21.933,21.502 21.8213333,21.4496667 21.755,21.3486667 C21.2143333,20.529 20.848,19.5243333 20.698,18.4396667 C20.29,15.4676667 21.3396667,13.7026667 22.4106667,12.7016667 L10.1256667,0.531 C9.414,-0.177 8.263,-0.177 7.555,0.531 C6.847,1.239 6.847,2.39 7.555,3.09833333 L9.82933333,5.37266667 L16.7393333,12.279 C16.8753333,12.415 16.8753333,12.6346667 16.7393333,12.7706667 C16.7043333,12.8056667 16.666,12.8333333 16.6243333,12.8473333 C16.579,12.8646667 16.5336667,12.8753333 16.4883333,12.8753333 C16.401,12.8753333 16.314,12.8403333 16.244,12.7743333 L9.68966667,6.22 L4.64233333,1.16933333 C4.30066667,0.827333333 3.84366667,0.639 3.35866667,0.639 C2.87033333,0.639 2.417,0.827333333 2.075,1.16933333 C1.733,1.51466667 1.54466667,1.97166667 1.54466667,2.453 C1.54466667,2.938 1.733,3.39466667 2.075,3.74 L12.4066667,14.0683333 L12.9506667,13.5313333 C13.5506667,12.928 14.5306667,12.928 15.1343333,13.5313333 C15.347,13.7476667 15.49,14.0163333 15.5493333,14.3126667 L15.975,13.887 C16.1563333,13.702 16.3796667,13.573 16.6166667,13.5 C16.7596667,13.4546667 16.913,13.4336667 17.0666667,13.4336667 C17.4816667,13.4336667 17.869,13.594 18.1583333,13.887 C18.4513333,14.1766667 18.6116667,14.5636667 18.6116667,14.9753333 C18.6116667,15.3903333 18.4513333,15.7776667 18.1583333,16.067 L18.155,16.0703333 C18.441,16.1296667 18.713,16.269 18.9363333,16.489 C19.226,16.7786667 19.3863333,17.1693333 19.3863333,17.5806667 C19.3863333,17.9923333 19.226,18.3793333 18.9363333,18.6723333 L17.876,19.7326667 C18.169,19.7953333 18.441,19.942 18.654,20.1546667 C19.254,20.7546667 19.268,21.7173333 18.6853333,22.3066667 L13.5473333,27.4453333 C14.4506667,28.2893333 15.396,28.9453333 16.3656667,29.3883333 C18.1656667,30.2146667 20.3386667,29.817 21.769,28.3973333 Z" id="Shape"></path>
                <path d="M7.19566667,29.381 C7.76433333,29.9426667 8.58733333,30.1413333 9.34433333,29.8973333 C10.1153333,29.6496667 10.8616667,29.158 11.5663333,28.4393333 L18.19,21.8153333 C18.504,21.498 18.49,20.9746667 18.162,20.6466667 C17.855,20.3396667 17.3003333,20.3153333 17.0073333,20.6046667 C16.997,20.6116667 16.99,20.622 16.9793333,20.629 L12.993,24.6163333 L12.9233333,24.6896667 C12.8536667,24.7593333 12.7663333,24.7906667 12.6756667,24.7906667 C12.585,24.7906667 12.4976667,24.7593333 12.428,24.6896667 C12.292,24.5536667 12.292,24.334 12.428,24.198 L12.5013333,24.1246667 L16.5023333,20.1203333 C16.5126667,20.11 16.5233333,20.103 16.5336667,20.0923333 L18.4416667,18.181 C18.602,18.0206667 18.6893333,17.8076667 18.6893333,17.581 C18.6893333,17.3543333 18.602,17.1416667 18.4416667,16.981 C18.1136667,16.653 17.5766667,16.653 17.2453333,16.981 L11.479,22.7503333 C11.343,22.8863333 11.1233333,22.883 10.9873333,22.7503333 C10.8513333,22.6143333 10.8513333,22.391 10.9873333,22.255 L11.1093333,22.133 L17.667,15.5753333 C17.8273333,15.415 17.9146667,15.202 17.9146667,14.9753333 C17.9146667,14.752 17.8273333,14.5393333 17.667,14.379 C17.3496667,14.0616667 16.788,14.0616667 16.4706667,14.379 L10.063,20.7863333 C9.927,20.926 9.70733333,20.926 9.57133333,20.7896667 C9.43533333,20.6536667 9.43533333,20.4303333 9.57133333,20.2943333 L14.6396667,15.2226667 C14.7966667,15.0623333 14.8836667,14.853 14.8836667,14.6226667 C14.8836667,14.3923333 14.7963333,14.1833333 14.6396667,14.0226667 C14.3116667,13.6946667 13.7746667,13.6946667 13.4433333,14.0226667 L6.512,20.891 C6.505,20.898 6.498,20.898 6.49466667,20.905 C6.425,20.9853333 6.32733333,21.0306667 6.226,21.0306667 C6.17033333,21.0306667 6.111,21.0166667 6.05866667,20.9886667 C5.89133333,20.8943333 5.82833333,20.6816667 5.92266667,20.5143333 L5.94,20.4793333 L7.13633333,17.9503333 C7.241,17.7306667 7.262,17.4516667 7.19566667,17.2003333 C7.15733333,17.0536667 7.056,16.7923333 6.80866667,16.6736667 L6.49833333,16.5166667 C6.42166667,16.4746667 6.23666667,16.377 6.188,16.391 C6.17766667,16.3943333 6.13566667,16.4293333 6.08333333,16.5376667 C6.07633333,16.5516667 6.06933333,16.562 6.06233333,16.576 L4.01466667,19.841 C4.01466667,19.841 4.01466667,19.841 4.01133333,19.841 C2.86033333,21.871 2.093,24.3093333 2.97533333,25.1916667 L7.19566667,29.381 Z" id="Shape"></path>
                <path d="M4.18533333,11.972 L9.33033333,17.117 L11.9116667,14.5603333 L3.23666667,5.88533333 C2.52866667,5.18066667 1.37766667,5.17733333 0.669333333,5.88533333 C0.327333333,6.22733333 0.139,6.68066667 0.139,7.169 C0.139,7.66066667 0.327333333,8.11433333 0.669333333,8.45266667 L4.18533333,11.972 Z" id="Shape"></path>
                <path d="M4.24833333,18.1563333 L5.46233333,16.2203333 C5.588,15.9623333 5.75866667,15.7946667 5.97166667,15.7286667 C6.30666667,15.617 6.61,15.7843333 6.83333333,15.903 L7.11233333,16.046 C7.24833333,16.1086667 7.374,16.1993333 7.482,16.311 C7.66333333,16.4993333 7.79933333,16.7436667 7.87266667,17.0226667 C7.98066667,17.4376667 7.94233333,17.8843333 7.768,18.247 L7.39466667,19.0353333 L8.83533333,17.6053333 L7.51333333,16.2833333 L3.69366667,12.4636667 C3.37966667,12.1496667 2.95066667,11.9753333 2.49033333,11.9753333 C2.00533333,11.9753333 1.531,12.174 1.18233333,12.5193333 C0.477666667,13.2273333 0.449666667,14.354 1.123,15.0306667 L4.24833333,18.1563333 Z" id="Shape"></path>
            </g>
        </g>
    </g>
</svg>